<?xml version="1.0" encoding="UTF-8"?><svg id="Layer_2" xmlns="http://www.w3.org/2000/svg" viewBox="0 0 1112.04 1694.12"><defs><style>.cls-1{fill:#5c6836;}</style></defs><g id="Layer_1-2"><g id="kwak-logo"><path class="cls-1" d="M333.05,295.83c-1.97,70.76,44.03,149.35,125.52,122.6,47.2-15.49,120.64-116.72,160.55-65.11,37.37,48.32,3.98,88.61,2.27,135.93-1.36,37.64,20.53,100.76,41.75,131.92,20.04,29.43,56.53,45.68,48.62,90.58-14.36,81.52-133.8,235.85-203.7,281.78-60.29,39.62-256.77,109.84-328.04,116.58-60.19,5.69-131.56,3.33-166.29-53.39-48.25-78.8,42.35-123.46,91.36-177.5,59.43-65.53,200.3-222.43,204.99-309.3,1.99-36.81-7.22-85.34-6.15-127.11.87-33.95,5.13-110.4,17.01-138.91,3.05-7.32-2.42-10.22,12.11-8.06ZM475.8,545.31c-50.5,11.32-52.84,94.17-1.32,97.58,69.54,4.61,73.41-113.74,1.32-97.58Z"/><path class="cls-1" d="M856.9,233.78c23.76,25.75-17.88,55.18-43.17,40.48-49.03-33.67,10.44-75.96,43.17-40.48Z"/><path class="cls-1" d="M1093.79,456.06C1038.12,159.24,778.49-130.67,466.36,62.39c-77.93,48.2-149.26,113.75-75.39,207.27,70.67,89.46,119.74-42.77,199.03-43.09,111.72-.45,160.7,113.63,152.91,210.65-2.04,25.38-13.94,46.42-10.21,73.65,7.19,52.59,53.86,73.95,72.53,118.33,36.11,85.81-6.69,167.98-49.68,242.27-60.62,104.74-147.75,197.67-258.02,250.15-18.9,185.88-67.42,368.18-139.03,541.56,81.04,20.42,165.16,30.95,250.91,30.95,141.25,0,278.08-28.6,403.97-82.94,2.88-176.44,18.91-363.81,36.47-491.54,33.36-242.64,92.11-406.72,43.93-663.58ZM854.87,323.91c-92.36,47.49-118.39-146.34-26.67-154.08,64.82-5.47,87.09,123.01,26.67,154.08Z"/></g></g></svg>