<?xml version="1.0" encoding="UTF-8"?><svg id="Layer_2" xmlns="http://www.w3.org/2000/svg" viewBox="0 0 1436.01 240.86"><defs><style>.cls-1{fill:#fdb814;}</style></defs><g id="Layer_1-2"><g id="Stars"><path class="cls-1" d="M538.08,81.89l-78.7,1.94c-2.51.06-4.77-1.5-5.61-3.87l-26.17-74.25c-2.76-7.82-13.91-7.55-16.28.4l-22.47,75.45c-.72,2.41-2.9,4.08-5.41,4.14l-78.7,1.94c-8.29.2-11.48,10.9-4.65,15.6l64.81,44.69c2.07,1.43,2.98,4.02,2.26,6.42l-22.47,75.45c-2.37,7.95,6.82,14.28,13.4,9.24l62.53-47.83c1.99-1.53,4.74-1.59,6.81-.17l64.81,44.69c6.83,4.71,15.69-2.07,12.93-9.89l-26.17-74.25c-.83-2.37-.05-5,1.94-6.53l62.53-47.83c6.59-5.04,2.88-15.56-5.41-15.36Z"/><path class="cls-1" d="M834.46,81.89l-78.7,1.94c-2.51.06-4.77-1.5-5.61-3.87l-26.17-74.25c-2.76-7.82-13.91-7.55-16.28.4l-22.48,75.45c-.72,2.41-2.9,4.08-5.41,4.14l-78.7,1.94c-8.29.2-11.48,10.9-4.65,15.6l64.81,44.69c2.07,1.43,2.98,4.02,2.26,6.42l-22.48,75.45c-2.37,7.95,6.82,14.28,13.4,9.24l62.53-47.83c1.99-1.53,4.74-1.59,6.81-.17l64.81,44.69c6.83,4.71,15.69-2.07,12.93-9.89l-26.17-74.25c-.83-2.37-.05-5,1.94-6.53l62.53-47.83c6.59-5.04,2.88-15.56-5.41-15.36Z"/><path class="cls-1" d="M1130.84,81.89l-78.7,1.94c-2.51.06-4.77-1.5-5.61-3.87l-26.17-74.25c-2.76-7.82-13.91-7.55-16.28.4l-22.47,75.45c-.72,2.41-2.9,4.08-5.41,4.14l-78.7,1.94c-8.29.2-11.48,10.9-4.65,15.6l64.81,44.69c2.07,1.43,2.98,4.02,2.26,6.42l-22.47,75.45c-2.37,7.95,6.82,14.28,13.4,9.24l62.53-47.83c1.99-1.53,4.74-1.59,6.81-.17l64.81,44.69c6.83,4.71,15.69-2.07,12.93-9.89l-26.17-74.25c-.83-2.37-.05-5,1.94-6.53l62.53-47.83c6.59-5.04,2.88-15.56-5.41-15.36Z"/><path class="cls-1" d="M1427.22,81.89l-78.7,1.94c-2.51.06-4.77-1.5-5.61-3.87l-26.17-74.25c-2.76-7.82-13.91-7.55-16.28.4l-22.47,75.45c-.72,2.41-2.9,4.08-5.41,4.14l-78.7,1.94c-8.29.2-11.48,10.9-4.65,15.6l64.81,44.69c2.07,1.43,2.98,4.02,2.26,6.42l-22.47,75.45c-2.37,7.95,6.82,14.28,13.4,9.24l62.53-47.83c1.99-1.53,4.74-1.59,6.81-.17l64.81,44.69c6.83,4.71,15.69-2.07,12.93-9.89l-26.17-74.25c-.83-2.37-.05-5,1.94-6.53l62.53-47.83c6.59-5.04,2.88-15.56-5.41-15.36Z"/><path class="cls-1" d="M241.7,81.89l-78.7,1.94c-2.51.06-4.77-1.5-5.61-3.87L131.23,5.72c-2.76-7.82-13.91-7.55-16.28.4l-22.47,75.45c-.72,2.41-2.9,4.08-5.41,4.14l-78.7,1.94c-8.29.2-11.48,10.9-4.65,15.6l64.81,44.69c2.07,1.43,2.98,4.02,2.26,6.42l-22.47,75.45c-2.37,7.95,6.82,14.28,13.4,9.24l62.53-47.83c1.99-1.53,4.74-1.59,6.81-.17l64.81,44.69c6.83,4.71,15.69-2.07,12.93-9.89l-26.17-74.25c-.83-2.37-.05-5,1.94-6.53l62.53-47.83c6.59-5.04,2.88-15.56-5.41-15.36Z"/></g></g></svg>