<?xml version="1.0" encoding="UTF-8"?><svg id="Layer_2" xmlns="http://www.w3.org/2000/svg" viewBox="0 0 56.95 70.44"><defs><style>.cls-1{fill:#f15642;stroke-width:0px;}</style></defs><g id="_8_logo_variations"><g id="fireLogo-Icon_simplified"><path class="cls-1" d="M55.88,37.77c-3.43-8.95-14.56-14.68-21.42-20.74C29.69,12.82,23.73,6.5,28.3,0c0-.08-4,1.7-4.42,1.95C15.91,6.7,9.62,14.01,5.46,22.24,1.17,30.73-1.63,41.03,1.05,50.54c5.35,18.96,29.99,26.04,45.11,13.91,7.29-5.85,13.3-17.31,9.71-26.67ZM42.02,53.67c-7.28,9.23-22.86,8.52-28.65-1.86-2.9-5.2-2.67-11.64-1.3-17.22,1.32-5.42,4.04-10.58,8.1-14.48.21-.2,2.34-1.81,2.35-1.76-1.8,4.45,2.6,7.32,6.01,9.13,4.9,2.6,12.29,4.4,15.56,9.18,3.42,4.99,1.45,12.56-2.06,17.01Z"/><path class="cls-1" d="M23.46,33.54s-.9.95-.99,1.07c-1.63,2.27-2.49,5.03-2.66,7.79-.17,2.84.3,6,2.18,8.28,3.75,4.54,11.42,3.5,14.14-1.66,1.31-2.49,1.6-6.35-.52-8.48s-5.79-2.25-8.41-3.08c-1.82-.58-4.23-1.58-3.75-3.92Z"/></g></g></svg>