<?xml version="1.0" encoding="UTF-8"?><svg id="Layer_2" xmlns="http://www.w3.org/2000/svg" viewBox="0 0 56.95 87.5"><defs><style>.cls-1{fill:#f15642;stroke-width:0px;}</style></defs><g id="_8_logo_variations"><g id="fullFire_LogoIcon"><path class="cls-1" d="M55.88,54.83c-3.43-8.95-14.56-14.68-21.42-20.74-4.77-4.22-10.73-10.53-6.16-17.03,0-.08-4,1.7-4.42,1.95-7.96,4.75-14.26,12.06-18.42,20.29C1.17,47.79-1.63,58.09,1.05,67.6c5.35,18.96,29.99,26.04,45.11,13.91,7.29-5.85,13.3-17.31,9.71-26.67ZM42.02,70.73c-7.28,9.23-22.86,8.52-28.65-1.86-2.9-5.2-2.67-11.64-1.3-17.22,1.32-5.42,4.04-10.58,8.1-14.48.21-.2,2.34-1.81,2.35-1.76-1.8,4.45,2.6,7.32,6.01,9.13,4.9,2.6,12.29,4.4,15.56,9.18,3.42,4.99,1.45,12.56-2.06,17.01Z"/><path class="cls-1" d="M23.46,50.59s-.9.95-.99,1.07c-1.63,2.27-2.49,5.03-2.66,7.79-.17,2.84.3,6,2.18,8.28,3.75,4.54,11.42,3.5,14.14-1.66,1.31-2.49,1.6-6.35-.52-8.48s-5.79-2.25-8.41-3.08c-1.82-.58-4.23-1.58-3.75-3.92Z"/><path class="cls-1" d="M29.71,0s-.85.22-.94.26c-1.73.71-3.2,1.97-4.27,3.47-1.1,1.55-1.96,3.51-1.7,5.47.52,3.91,5.23,6.03,8.6,4.08,1.63-.94,3.16-3.03,2.72-4.99s-2.48-3.33-3.67-4.73c-.83-.97-1.84-2.4-.73-3.55Z"/></g></g></svg>