<?xml version="1.0" encoding="UTF-8"?><svg id="Layer_2" xmlns="http://www.w3.org/2000/svg" viewBox="0 0 255.24 117.51"><defs><style>.cls-1{stroke:#20345b;stroke-miterlimit:10;}.cls-1,.cls-2,.cls-3{fill:#20345b;}.cls-4{letter-spacing:-.11em;}.cls-2{font-family:Merel-Black, Merel;font-size:19.77px;font-weight:800;}.cls-3,.cls-5{stroke-width:0px;}.cls-5{fill:#f15642;}</style></defs><g id="_8_logo_variations"><g id="primary-logo"><path class="cls-3" d="M72.43,71.07c-4.45-11.6-18.87-19.02-27.76-26.88-6.18-5.47-13.9-13.65-7.99-22.08,0-.11-5.19,2.2-5.73,2.52-10.32,6.16-18.48,15.63-23.87,26.31C1.52,61.95-2.11,75.3,1.36,87.62c6.93,24.58,38.88,33.75,58.48,18.03,9.45-7.58,17.24-22.44,12.59-34.58ZM54.47,91.68c-9.43,11.97-29.63,11.04-37.14-2.41-3.76-6.75-3.46-15.09-1.69-22.32,1.72-7.02,5.24-13.72,10.5-18.77.28-.27,3.03-2.34,3.04-2.28-2.34,5.77,3.37,9.49,7.79,11.84,6.35,3.37,15.93,5.71,20.17,11.9,4.43,6.47,1.88,16.28-2.67,22.05Z"/><path class="cls-5" d="M30.41,65.58s-1.17,1.23-1.28,1.39c-2.11,2.94-3.23,6.52-3.44,10.1-.22,3.69.38,7.78,2.82,10.74,4.87,5.89,14.8,4.53,18.33-2.15,1.7-3.22,2.07-8.24-.67-11s-7.5-2.92-10.9-4c-2.37-.75-5.48-2.05-4.86-5.08Z"/><path class="cls-3" d="M38.51,0s-1.1.28-1.22.33c-2.24.92-4.15,2.55-5.53,4.5-1.43,2.01-2.54,4.55-2.21,7.09.67,5.06,6.78,7.82,11.15,5.29,2.11-1.22,4.1-3.93,3.52-6.47-.55-2.43-3.21-4.32-4.76-6.13-1.08-1.26-2.38-3.11-.95-4.6Z"/><g id="uri-typelogo"><path class="cls-5" d="M168.03,67.7c-.48-.09-1.05.47-1.32.97-2.69,4.86-5.62,9.83-10.34,12.96-.13.09-.29.13-.45.11-.91-.1-.8-.92-.6-1.52,1.65-4.97,4.04-9.94,3.66-15.15-.11-1.48-.5-3.03-1.61-4.06s-3.11-1.23-4.11-.11c-.43.49-.62,1.13-.79,1.75-.61,2.23-1.23,4.46-1.84,6.69-1.7,6.17-3.62,12.71-8.53,17-.81.71-1.82,1.38-2.9,1.22-1.75-.25-2.4-2.36-2.47-4.08-.17-4.38.92-8.81,3.11-12.65.82-1.42,1.79-2.78,2.3-4.33s.48-3.39-.58-4.65c-1.19-1.41-3.38-1.71-5.18-1.2s-5.73,1.81-6.38,1.63c1.68-2.67,2.9-5.61,3.61-8.65.33-1.43.5-3.08-.44-4.24-1.08-1.32-3.27-1.37-4.76-.49s-2.4,2.43-3.08,3.99c-1.14,2.61-1.74,5.83-.01,8.11.65.86,1.61,1.58,1.76,2.63.12.81-.29,1.6-.69,2.32-1.89,3.45-3.79,6.91-6.05,10.15-1.87,2.68-4.18,5.32-7.36,6.32-.18-10.3,4.04-20.19,5.18-30.43.41-3.73,0-8.26-3.4-10.08-.69-.37-1.48-.59-2.26-.51-1.34.15-2.43,1.2-3,2.38s-.72,2.51-.91,3.81c-1.82,12.35-17.23,32.24-18.02,32.25-1.01-.59-.83-3.33-.47-5.04,1.83-8.55,3.66-17.11,5.48-25.66.81-3.8,1.61-7.79.43-11.49-.94-2.94-3.64-5.71-6.91-6.08-.5-.06-1.75-.24-1.95.35-.13.37-.08.87-.12,1.26-.05.51-.1,1.03-.16,1.54-.23,2.05-.55,4.09-.91,6.12-.73,4.08-1.68,8.11-2.59,12.15s-1.8,8.09-2.42,12.18c-.19,1.25-.35,2.5-.49,3.75-.44,4.12-.52,8.38.88,12.29.72,2,2.03,4.03,4.14,4.58,2.94.76,5.65-1.66,7.6-3.92,4.22-4.9,8.07-10.1,11.51-15.55-.7,4.19-1.41,8.43-.95,12.65.25,2.32.97,4.79,2.89,6.22,2.42,1.81,6.04,1.33,8.57-.33s4.22-4.24,5.83-6.75c1.55-2.41,3.1-4.81,4.65-7.22.63-.97,1.26-1.95,1.88-2.92.64-1,1.42-1.97,1.9-3.05,0,0,3.92-.52,5.01-.84s-2.49,5.48-3.21,7.83c-.99,3.26-1.99,6.63-1.62,10.01s2.46,6.82,5.83,7.8c3.16.92,6.65-.56,8.93-2.87,2.28-2.31,3.59-5.33,4.86-8.27.57,1.86,1.26,3.88,2.97,4.89,1.48.88,3.42.76,5,.05s2.83-1.94,3.94-3.23c3.03-3.5,5.23-7.59,7.44-11.62.09-.16.1-.36.01-.53-.14-.28-.31-.41-.5-.44ZM128.85,60.98c-.12-.83-.8-1.66-.8-2.55,0-1.36,1.59-4.74,2.94-5.33.31.12.31.41.31.65,0,1.9-1.66,5.51-2.45,7.23Z"/><path class="cls-5" d="M158.87,46.32c1.27,0,4.56,1.35,4.56,2.75,0,.55-.25,1.04-.57,1.47-.7,1.29-2.09,4.47-3.8,4.47-2.79,0-4.24-2.51-4.24-4.96,0-2.08,1.9-3.73,4.05-3.73Z"/></g><text class="cls-2" transform="translate(74.82 110.28)"><tspan x="0" y="0">BRAND CRE</tspan><tspan class="cls-4" x="109.6" y="0">A</tspan><tspan x="121.74" y="0">TIONS</tspan></text><g id="line"><rect class="cls-1" x="76.3" y="90.95" width="175.63" height="1.13"/><circle class="cls-3" cx="252.97" cy="91.51" r="2.24"/><circle class="cls-3" cx="165.42" cy="91.51" r="2.24"/><circle class="cls-3" cx="77.88" cy="91.51" r="2.24"/></g><g id="brush"><path class="cls-3" d="M224.41,91.84h-6.53c-.22,0-.4-.48-.39-1.07l1.38-25.48c0-.55.18-.99.39-.99h3.77c.21,0,.39.44.39.99l1.38,25.48c0,.58-.17,1.07-.39,1.07Z"/><path class="cls-3" d="M224.48,48.63c-.93-1.88-2.21-3.48-3.74-4.43-.08-.05-.83-.38-.83-.36.96,1.45.04,3.11-.72,4.23-1.09,1.62-2.95,3.81-3.36,6.04-.43,2.33.9,4.93,2.33,6.16.18.16.37.29.56.41.1.06.16.18.16.32v2.38c0,.2.13.36.3.36h3.93c.17,0,.3-.16.3-.36v-2.71c0-.12.05-.23.14-.3,1.2-.93,2.12-2.5,2.35-4.51.27-2.34-.46-5.3-1.41-7.23ZM219.08,57.27c.12.51.51,1.33.34,1.86-.76-1.25-1.39-3.05-1.29-4.62.09-1.41.74-2.67,1.38-3.86.18,1.15-.32,2.14-.53,3.22-.09.47-.13.94-.13,1.42,0,.67.09,1.33.23,1.98ZM222.07,51.28c-.11.73-.4,1.38-.59,2.08-.18.67-.31,1.38-.36,2.07-.08,1.23-.01,2.49-.02,3.7-.48-1.75-.77-3.42-.41-5.25.32-1.68.81-3.34,1.41-4.91.07.78.09,1.54-.03,2.31ZM224.1,55.49c-.05.39-.13.78-.22,1.15-.22.94-.58,1.87-1.23,2.48.2-.48.31-1,.45-1.51.2-.73.37-1.47.48-2.22.19-1.28.21-2.63-.18-3.87.1.31.35.59.47.91.12.33.2.68.25,1.03.09.66.07,1.35-.03,2.02Z"/></g><g id="pen"><path class="cls-3" d="M243.33,74.7h-6.66c-.33,0-.59-.22-.58-.48l.98-11.44c.01-.25.27-.44.58-.44h4.7c.31,0,.57.2.58.44l.98,11.44c.01.26-.25.48-.58.48Z"/><path class="cls-3" d="M236.67,75.2h6.66c.33,0,.59.29.58.64l-.56,15.39c-.01.33-.27.6-.58.6h-5.54c-.31,0-.57-.26-.58-.6l-.56-15.39c-.01-.35.25-.64.58-.64Z"/><path class="cls-3" d="M245.4,49.89l-5.02-6.53s-.04-.03-.06-.05v7.34c.29.15.49.51.49.92,0,.55-.37,1-.82,1s-.82-.45-.82-1c0-.41.2-.76.49-.92v-7.34s-.04.03-.06.05l-5.02,6.53c-.12.16-.17.37-.13.58l2.58,10.95c.05.3.27.51.52.51h4.87c.25,0,.46-.21.52-.51l2.58-10.95c.04-.21-.01-.43-.13-.58Z"/></g><g id="tool"><rect class="cls-3" x="187.65" y="37.44" width="3.3" height="6.79" rx=".88" ry=".88"/><path class="cls-3" d="M174.37,87.06l-.61,4.49c-.04.27.3.39.43.16l1.76-3.18c-.66-.34-1.2-.86-1.58-1.47Z"/><path class="cls-3" d="M184.12,56.7l-9.96,26.01c-.48,1.26-.31,2.62.34,3.67.36.59.88,1.08,1.51,1.41.08.04.17.09.26.12.36.15.77-.03.92-.41l11.24-29.36s0,0,0,0c-1.61-.15-3.09-.67-4.31-1.45Z"/><path class="cls-3" d="M203.42,87.13l.46,4.44c.03.26-.32.37-.44.14l-1.65-3.19c.67-.31,1.23-.8,1.63-1.39Z"/><path class="cls-3" d="M194.71,56.94l9.06,25.92c.44,1.25.22,2.58-.47,3.6-.38.57-.91,1.03-1.56,1.33-.09.04-.17.08-.26.11-.37.14-.77-.06-.91-.44l-10.22-29.26s0,0,0,0c1.62-.09,3.11-.55,4.36-1.27Z"/><path class="cls-3" d="M189.3,58.62c-4.98,0-9.03-3.17-9.03-7.06s4.05-7.06,9.03-7.06,9.03,3.17,9.03,7.06-4.05,7.06-9.03,7.06ZM189.3,46.3c-3.99,0-7.24,2.36-7.24,5.26s3.25,5.26,7.24,5.26,7.24-2.36,7.24-5.26-3.25-5.26-7.24-5.26Z"/><rect class="cls-3" x="188.66" y="46.24" width="1.41" height="11.23"/><circle class="cls-3" cx="189.3" cy="57.78" r="2.22"/></g></g></g></svg>