<?xml version="1.0" encoding="UTF-8"?><svg id="Layer_2" xmlns="http://www.w3.org/2000/svg" viewBox="0 0 139.57 111.01"><defs><style>.cls-1{fill:#20345b;font-family:Merel-Black, Merel;font-size:15.25px;font-weight:800;}.cls-2{letter-spacing:-.11em;}.cls-3{fill:#f15642;stroke-width:0px;}</style></defs><g id="_8_logo_variations"><g id="SecondaryLogo"><path class="cls-3" d="M67.18,54.83c-3.43-8.95-14.56-14.68-21.42-20.74-4.77-4.22-10.73-10.53-6.16-17.03,0-.08-4,1.7-4.42,1.95-7.96,4.75-14.26,12.06-18.42,20.29-4.29,8.49-7.09,18.79-4.41,28.29,5.35,18.96,29.99,26.04,45.11,13.91,7.29-5.85,13.3-17.31,9.71-26.67ZM53.32,70.73c-7.28,9.23-22.86,8.52-28.65-1.86-2.9-5.2-2.67-11.64-1.3-17.22,1.32-5.42,4.04-10.58,8.1-14.48.21-.2,2.34-1.81,2.35-1.76-1.8,4.45,2.6,7.32,6.01,9.13,4.9,2.6,12.29,4.4,15.56,9.18,3.42,4.99,1.45,12.56-2.06,17.01Z"/><path class="cls-3" d="M34.76,50.59s-.9.95-.99,1.07c-1.63,2.27-2.49,5.03-2.66,7.79-.17,2.84.3,6,2.18,8.28,3.75,4.54,11.42,3.5,14.14-1.66,1.31-2.49,1.6-6.35-.52-8.48-2.02-2.04-5.79-2.25-8.41-3.08-1.82-.58-4.23-1.58-3.75-3.92Z"/><path class="cls-3" d="M41.01,0s-.85.22-.94.26c-1.73.71-3.2,1.97-4.27,3.47-1.1,1.55-1.96,3.51-1.7,5.47.52,3.91,5.23,6.03,8.6,4.08,1.63-.94,3.16-3.03,2.72-4.99s-2.48-3.33-3.67-4.73c-.83-.97-1.84-2.4-.73-3.55Z"/><g id="uri-typelogo"><path class="cls-3" d="M127.92,73.15c-.3-.06-.65.3-.82.62-1.68,3.13-3.5,6.33-6.43,8.34-.08.06-.18.08-.28.07-.57-.06-.5-.6-.37-.98,1.03-3.2,2.51-6.4,2.27-9.75-.07-.95-.31-1.95-1-2.61s-1.93-.79-2.56-.07c-.27.31-.38.73-.49,1.13-.38,1.43-.76,2.87-1.15,4.3-1.06,3.97-2.25,8.18-5.3,10.94-.5.45-1.13.88-1.8.79-1.09-.16-1.49-1.52-1.53-2.62-.11-2.82.57-5.67,1.94-8.14.51-.92,1.11-1.79,1.43-2.79s.3-2.18-.36-2.99c-.74-.91-2.1-1.1-3.23-.77s-3.57,1.17-3.97,1.05c1.04-1.72,1.81-3.61,2.25-5.57.21-.92.31-1.98-.27-2.73-.67-.85-2.03-.88-2.96-.31s-1.49,1.57-1.92,2.56c-.71,1.68-1.08,3.75,0,5.22.4.55,1,1.02,1.1,1.69.07.52-.18,1.03-.43,1.49-1.18,2.22-2.36,4.45-3.76,6.53-1.17,1.72-2.6,3.42-4.58,4.06-.11-6.63,2.51-12.99,3.22-19.58.26-2.4,0-5.32-2.12-6.49-.43-.24-.92-.38-1.41-.33-.84.1-1.51.77-1.86,1.53s-.45,1.62-.56,2.45c-1.13,7.95-10.72,20.74-11.21,20.75-.63-.38-.52-2.14-.29-3.24,1.14-5.5,2.27-11.01,3.41-16.51.5-2.44,1-5.01.27-7.39-.59-1.89-2.26-3.68-4.3-3.91-.31-.04-1.09-.15-1.21.23-.08.24-.05.56-.07.81-.03.33-.06.66-.1.99-.14,1.32-.34,2.63-.57,3.94-.46,2.62-1.04,5.22-1.61,7.82s-1.12,5.2-1.51,7.84c-.12.8-.22,1.61-.3,2.41-.27,2.65-.32,5.39.55,7.91.45,1.28,1.26,2.6,2.58,2.95,1.83.49,3.52-1.07,4.73-2.52,2.62-3.16,5.02-6.5,7.16-10-.44,2.69-.88,5.43-.59,8.14.16,1.5.61,3.08,1.8,4,1.5,1.16,3.76.85,5.33-.21s2.62-2.73,3.63-4.34c.96-1.55,1.93-3.1,2.89-4.65.39-.63.78-1.25,1.17-1.88.4-.64.88-1.27,1.18-1.97,0,0,2.44-.34,3.12-.54s-1.55,3.52-2,5.04c-.62,2.1-1.24,4.27-1.01,6.44s1.53,4.39,3.63,5.02c1.97.59,4.14-.36,5.55-1.85s2.24-3.43,3.02-5.32c.35,1.19.79,2.49,1.85,3.15.92.57,2.13.49,3.11.03s1.76-1.25,2.45-2.08c1.88-2.25,3.25-4.88,4.63-7.47.06-.11.06-.23,0-.34-.09-.18-.19-.26-.31-.29ZM103.55,68.83c-.08-.53-.5-1.07-.5-1.64,0-.88.99-3.05,1.83-3.43.19.08.19.27.19.42,0,1.22-1.03,3.55-1.53,4.65Z"/><path class="cls-3" d="M122.23,59.4c.79,0,2.84.87,2.84,1.77,0,.35-.16.67-.35.95-.43.83-1.3,2.87-2.36,2.87-1.73,0-2.64-1.61-2.64-3.19,0-1.34,1.18-2.4,2.52-2.4Z"/></g><text class="cls-1" transform="translate(.39 105.43)"><tspan x="0" y="0">BRAND CRE</tspan><tspan class="cls-2" x="84.55" y="0">A</tspan><tspan x="93.92" y="0">TIONS</tspan></text></g></g></svg>