<?xml version="1.0" encoding="UTF-8"?><svg id="Layer_2" xmlns="http://www.w3.org/2000/svg" viewBox="0 0 77.45 94.37"><defs><style>.cls-1{font-size:16px;}.cls-2{fill:#20345b;font-family:Merel-Black, Merel;font-weight:800;}.cls-3{letter-spacing:-.11em;}.cls-4{font-size:10px;}.cls-5{fill:#f15642;stroke-width:0px;}</style></defs><g id="_8_logo_variations"><g id="tallLogo"><g id="uri-typelogo"><path class="cls-5" d="M59.84,53.29c-.23-.04-.51.24-.64.49-1.3,2.43-2.72,4.92-5.01,6.49-.06.04-.14.07-.22.06-.44-.05-.39-.46-.29-.76.8-2.49,1.96-4.98,1.77-7.59-.05-.74-.24-1.52-.78-2.03s-1.51-.62-1.99-.05c-.21.24-.3.57-.38.88-.3,1.12-.59,2.23-.89,3.35-.82,3.09-1.76,6.37-4.13,8.51-.39.35-.88.69-1.4.61-.85-.12-1.16-1.18-1.19-2.04-.08-2.2.44-4.41,1.51-6.33.39-.71.87-1.39,1.11-2.17s.23-1.7-.28-2.33c-.58-.71-1.63-.86-2.51-.6s-2.78.91-3.09.82c.81-1.34,1.41-2.81,1.75-4.33.16-.72.24-1.54-.21-2.12-.52-.66-1.58-.68-2.3-.24s-1.16,1.22-1.49,2c-.55,1.31-.84,2.92,0,4.06.31.43.78.79.85,1.32.06.41-.14.8-.33,1.16-.92,1.73-1.83,3.46-2.93,5.08-.91,1.34-2.02,2.66-3.56,3.16-.08-5.16,1.96-10.11,2.51-15.24.2-1.87,0-4.14-1.65-5.05-.33-.18-.72-.3-1.1-.25-.65.07-1.18.6-1.45,1.19s-.35,1.26-.44,1.91c-.88,6.19-8.34,16.15-8.73,16.15-.49-.29-.4-1.67-.23-2.53.88-4.28,1.77-8.57,2.65-12.85.39-1.9.78-3.9.21-5.75-.46-1.47-1.76-2.86-3.35-3.05-.24-.03-.85-.12-.95.18-.06.19-.04.44-.06.63-.02.26-.05.51-.08.77-.11,1.03-.26,2.05-.44,3.07-.36,2.04-.81,4.06-1.25,6.09s-.87,4.05-1.17,6.1c-.09.62-.17,1.25-.24,1.88-.21,2.06-.25,4.2.43,6.16.35,1,.98,2.02,2,2.29,1.42.38,2.74-.83,3.68-1.96,2.04-2.46,3.91-5.06,5.57-7.79-.34,2.1-.68,4.22-.46,6.34.12,1.16.47,2.4,1.4,3.11,1.17.91,2.92.66,4.15-.17,1.23-.83,2.04-2.13,2.82-3.38.75-1.21,1.5-2.41,2.25-3.62.3-.49.61-.98.91-1.46.31-.5.69-.99.92-1.53,0,0,1.9-.26,2.43-.42s-1.21,2.74-1.55,3.92c-.48,1.63-.96,3.32-.78,5.01s1.19,3.42,2.82,3.91c1.53.46,3.22-.28,4.32-1.44,1.1-1.16,1.74-2.67,2.35-4.14.28.93.61,1.94,1.44,2.45.72.44,1.66.38,2.42.02.76-.36,1.37-.97,1.91-1.62,1.47-1.75,2.53-3.8,3.6-5.82.04-.08.05-.18,0-.26-.07-.14-.15-.21-.24-.22ZM40.87,49.92c-.06-.42-.39-.83-.39-1.28,0-.68.77-2.38,1.43-2.67.15.06.15.21.15.33,0,.95-.8,2.76-1.19,3.62Z"/><path class="cls-5" d="M55.41,42.58c.61,0,2.21.67,2.21,1.38,0,.28-.12.52-.28.74-.34.64-1.01,2.24-1.84,2.24-1.35,0-2.05-1.26-2.05-2.48,0-1.04.92-1.87,1.96-1.87Z"/></g><text class="cls-2" transform="translate(11.49 77.58)"><tspan class="cls-1"><tspan x="0" y="0">BRAND </tspan></tspan><tspan class="cls-4"><tspan x="0" y="12">CRE</tspan><tspan class="cls-3" x="18.9" y="12">A</tspan><tspan x="25.04" y="12">TIONS</tspan></tspan></text><g id="brush"><path class="cls-5" d="M17.87,0h4.93c.17,0,.3.37.3.8l-1.04,19.25c0,.42-.14.74-.3.74h-2.85c-.16,0-.29-.33-.3-.74L17.57.8c0-.44.13-.8.3-.8Z"/><path class="cls-5" d="M17.81,32.64c.7,1.42,1.67,2.63,2.82,3.34.06.04.63.29.63.27-.72-1.1-.03-2.35.54-3.19.82-1.22,2.23-2.88,2.54-4.56.32-1.76-.68-3.73-1.76-4.66-.14-.12-.28-.22-.42-.31-.08-.05-.12-.14-.12-.24v-1.8c0-.15-.1-.27-.23-.27h-2.97c-.13,0-.23.12-.23.27v2.04c0,.09-.04.17-.1.22-.91.7-1.6,1.89-1.77,3.41-.2,1.77.35,4,1.07,5.46ZM21.89,26.11c-.09-.39-.39-1-.25-1.4.58.95,1.05,2.3.98,3.49-.07,1.06-.56,2.01-1.04,2.91-.14-.87.24-1.62.4-2.43.07-.35.1-.71.1-1.07,0-.5-.07-1.01-.18-1.49ZM19.63,30.63c.08-.55.3-1.05.45-1.57.14-.51.23-1.04.27-1.56.06-.93,0-1.88.01-2.8.36,1.32.58,2.58.31,3.97-.24,1.27-.62,2.52-1.06,3.71-.05-.59-.06-1.16.02-1.74ZM18.1,27.45c.04-.3.1-.59.16-.87.16-.71.44-1.41.93-1.88-.15.37-.23.75-.34,1.14-.15.55-.28,1.11-.36,1.68-.14.97-.16,1.99.13,2.92-.07-.23-.27-.45-.35-.69-.09-.25-.15-.51-.19-.78-.07-.5-.05-1.02.02-1.53Z"/></g></g></g></svg>