<?xml version="1.0" encoding="UTF-8"?><svg id="Layer_2" xmlns="http://www.w3.org/2000/svg" viewBox="0 0 54.99 37.64"><defs><style>.cls-1{fill:#f15642;stroke-width:0px;}</style></defs><g id="_8_logo_variations"><g id="uri-typelogo"><path class="cls-1" d="M54.65,23.29c-.3-.06-.65.3-.82.62-1.68,3.13-3.5,6.33-6.43,8.34-.08.06-.18.08-.28.07-.57-.06-.5-.6-.37-.98,1.03-3.2,2.51-6.4,2.27-9.75-.07-.95-.31-1.95-1-2.61s-1.93-.79-2.56-.07c-.27.31-.38.73-.49,1.13-.38,1.43-.76,2.87-1.15,4.3-1.06,3.97-2.25,8.18-5.3,10.94-.5.45-1.13.88-1.8.79-1.09-.16-1.49-1.52-1.53-2.62-.11-2.82.57-5.67,1.94-8.14.51-.92,1.11-1.79,1.43-2.79s.3-2.18-.36-2.99c-.74-.91-2.1-1.1-3.23-.77s-3.57,1.17-3.97,1.05c1.04-1.72,1.81-3.61,2.25-5.57.21-.92.31-1.98-.27-2.73-.67-.85-2.03-.88-2.96-.31s-1.49,1.57-1.92,2.56c-.71,1.68-1.08,3.75,0,5.22.4.55,1,1.02,1.1,1.69.07.52-.18,1.03-.43,1.49-1.18,2.22-2.36,4.45-3.76,6.53-1.17,1.72-2.6,3.42-4.58,4.06-.11-6.63,2.51-12.99,3.22-19.58.26-2.4,0-5.32-2.12-6.49-.43-.24-.92-.38-1.41-.33-.84.1-1.51.77-1.86,1.53s-.45,1.62-.56,2.45c-1.13,7.95-10.72,20.74-11.21,20.75-.63-.38-.52-2.14-.29-3.24,1.14-5.5,2.27-11.01,3.41-16.51.5-2.44,1-5.01.27-7.39C9.26,2.07,7.59.28,5.55.05c-.31-.04-1.09-.15-1.21.23-.08.24-.05.56-.07.81-.03.33-.06.66-.1.99-.14,1.32-.34,2.63-.57,3.94-.46,2.62-1.04,5.22-1.61,7.82s-1.12,5.2-1.51,7.84c-.12.8-.22,1.61-.3,2.41-.27,2.65-.32,5.39.55,7.91.45,1.28,1.26,2.6,2.58,2.95,1.83.49,3.52-1.07,4.73-2.52,2.62-3.16,5.02-6.5,7.16-10-.44,2.69-.88,5.43-.59,8.14.16,1.5.61,3.08,1.8,4,1.5,1.16,3.76.85,5.33-.21s2.62-2.73,3.63-4.34c.96-1.55,1.93-3.1,2.89-4.65.39-.63.78-1.25,1.17-1.88.4-.64.88-1.27,1.18-1.97,0,0,2.44-.34,3.12-.54s-1.55,3.52-2,5.04c-.62,2.1-1.24,4.27-1.01,6.44s1.53,4.39,3.63,5.02c1.97.59,4.14-.36,5.55-1.85,1.42-1.49,2.24-3.43,3.02-5.32.35,1.19.79,2.49,1.85,3.15.92.57,2.13.49,3.11.03s1.76-1.25,2.45-2.08c1.88-2.25,3.25-4.88,4.63-7.47.06-.11.06-.23,0-.34-.09-.18-.19-.26-.31-.29ZM30.27,18.97c-.08-.53-.5-1.07-.5-1.64,0-.88.99-3.05,1.83-3.43.19.08.19.27.19.42,0,1.22-1.03,3.55-1.53,4.65Z"/><path class="cls-1" d="M48.95,9.54c.79,0,2.84.87,2.84,1.77,0,.35-.16.67-.35.95-.43.83-1.3,2.87-2.36,2.87-1.73,0-2.64-1.61-2.64-3.19,0-1.34,1.18-2.4,2.52-2.4Z"/></g></g></svg>